<svg height="512pt" viewBox="0 0 512.00008 512" width="512pt" xmlns="http://www.w3.org/2000/svg"><path d="m500.058594 404.511719c-.035156-.292969-.09375-.582031-.171875-.871094-10.015625-37.453125-44.355469-63.195313-83.117188-62.308594h-1.179687l-.882813-5.058593c-3.695312-12.871094-15.867187-21.425782-29.230469-20.539063h-52.675781v-26.195313c34.097657-4.320312 59.675781-33.300781 59.734375-67.671874v-119.46875c-.046875-37.683594-30.582031-68.222657-68.269531-68.265626h-17.066406v-17.066406c-.011719-9.421875-7.644531-17.0546872-17.066407-17.066406h-68.265624c-9.421876.0117188-17.054688 7.644531-17.066407 17.066406v17.066406h-17.066406c-37.6875.042969-68.222656 30.582032-68.269531 68.265626v119.46875c.058594 34.371093 25.636718 63.351562 59.734375 67.671874v26.195313h-52.617188c-13.433593-.867187-25.644531 7.78125-29.28125 20.746094l-.847656 4.851562h-1.222656c-38.761719-.890625-73.105469 24.851563-83.125 62.308594-.078125.289063-.132813.578125-.167969.871094l-7.871094 57.332031c-2.710937 11.136719-4.0742185 22.5625-4.066406 34.027344v7.59375c0 4.714844 3.820312 8.535156 8.535156 8.535156h494.929688c4.714844 0 8.535156-3.820312 8.535156-8.535156v-7.59375c.007812-11.464844-1.355469-22.886719-4.066406-34.027344zm-278.191406-387.445313h68.265624v17.066406h-68.265624zm-85.332032 204.800782v-119.46875c.027344-28.261719 22.933594-51.167969 51.199219-51.199219h136.53125c28.265625.03125 51.171875 22.9375 51.199219 51.199219v119.46875c-.027344 28.261718-22.933594 51.167968-51.199219 51.199218h-136.53125c-28.265625-.03125-51.171875-22.9375-51.199219-51.199218zm59.730469 68.265624h119.46875v25.601563h-119.46875zm-175.523437 175.359376c.078124-.289063.132812-.585938.171874-.886719l7.867188-57.308594c8.144531-28.941406 34.601562-48.886719 64.664062-48.753906l-23.820312 136.390625h-52.558594c.066406-9.921875 1.300782-19.804688 3.675782-29.441406zm388.859374 29.441406h-322.648437l27.125-155.308594c2.28125-4.714844 7.304687-7.457031 12.503906-6.824219h258.894531c5.128907-.625 10.101563 2.015625 12.457032 6.613281l27.117187 155.519532zm32.773438 0-23.785156-136.390625c30.050781-.117188 56.488281 19.824219 64.628906 48.753906l7.871094 57.316406c.039062.300781.09375.59375.171875.886719 2.375 9.632812 3.609375 19.511719 3.671875 29.433594zm0 0"/><path d="m213.332031 162.132812c4.714844 0 8.535157-3.820312 8.535157-8.53125v-17.066406c0-4.714844-3.820313-8.535156-8.535157-8.535156-4.710937 0-8.53125 3.820312-8.53125 8.535156v17.066406c0 4.710938 3.820313 8.53125 8.53125 8.53125zm0 0"/><path d="m298.667969 162.132812c4.710937 0 8.53125-3.820312 8.53125-8.53125v-17.066406c0-4.714844-3.820313-8.535156-8.53125-8.535156-4.714844 0-8.535157 3.820312-8.535157 8.535156v17.066406c0 4.710938 3.820313 8.53125 8.535157 8.53125zm0 0"/><path d="m213.332031 196.265625c0 1.046875.484375 25.601563 42.667969 25.601563s42.667969-24.554688 42.667969-25.601563c.023437-4.757813-3.769531-8.65625-8.527344-8.769531-2.234375-.050782-4.398437.796875-6.003906 2.359375-1.601563 1.558593-2.511719 3.699219-2.519531 5.9375-.417969 3.117187-6.308594 9.007812-25.617188 9.007812s-25.199219-5.890625-25.601562-8.535156c0-4.710937-3.820313-8.53125-8.53125-8.53125-4.714844 0-8.535157 3.820313-8.535157 8.53125zm0 0"/></svg>